<svg viewBox="0 0 1500 1500" xmlns="http://www.w3.org/2000/svg">
  <defs>
    <linearGradient id="logo-grad" x1="0%" y1="0%" x2="100%" y2="100%">
      <stop offset="0%" stop-color="#9B0EE5"/>
      <stop offset="100%" stop-color="#F57B18"/>
    </linearGradient>
    <clipPath id="logo-clip">
      <path d="M502.535 502.43v-202.4a8.06 8.06 0 0 0-4.012-6.949l-92.168-53.191c-5.355-3.09-12.03.773-12.03 6.949V984.78c0 2.856 1.53 5.5 4.01 6.95l171.735 99.164c5.356 3.085 12.035-.778 12.035-6.954V977.516a8.07 8.07 0 0 0-4.011-6.953l-71.567-41.305a8.02 8.02 0 0 1-4.011-6.953V645.883a8.07 8.07 0 0 1 4.011-6.953l239.399-138.242a8.06 8.06 0 0 1 8.023 0l71.38 41.203a8.05 8.05 0 0 0 8.019 0l92.148-53.215c5.356-3.086 5.336-10.793 0-13.88L753.97 375.782a8.04 8.04 0 0 0-8.024 0L514.547 509.383c-5.332 3.086-12.012-.778-12.012-6.953m493.985 19.699L651.805 721.145a10.88 10.88 0 0 0-5.442 9.43v519.687c0 8.148 8.633 13.418 15.88 9.703l86.394-44.438a10.9 10.9 0 0 0 5.922-9.703V793.07c0-3.883 2.078-7.496 5.457-9.43L981.02 656.048c7.265-4.2 16.359 1.05 16.359 9.43v255.191c0 3.883-2.078 7.496-5.457 9.43l-143.852 83.054c-3.36 1.93-5.437 5.524-5.46 9.407l-.356 99.98c-.024 8.402 9.07 13.691 16.36 9.473l241.5-139.442a10.88 10.88 0 0 0 5.437-9.43l.105-397.992c0-3.882-2.078-7.496-5.46-9.449l-92.778-53.57a10.87 10.87 0 0 0-10.898 0m0 0"/>
    </clipPath>
  </defs>
  <rect clip-path="url(#logo-clip)" width="1500" height="1500" fill="url(#logo-grad)"/>
</svg>
